<?xml version="1.0" encoding="UTF-8"?>
<svg xmlns="http://www.w3.org/2000/svg" viewBox="0 0 1200 900" font-family="'Segoe UI', system-ui, -apple-system, sans-serif">
  <defs>
    <!-- Gradients -->
    <linearGradient id="headerGrad" x1="0%" y1="0%" x2="100%" y2="0%">
      <stop offset="0%" style="stop-color:#6366f1"/>
      <stop offset="100%" style="stop-color:#8b5cf6"/>
    </linearGradient>
    <linearGradient id="coreGrad" x1="0%" y1="0%" x2="0%" y2="100%">
      <stop offset="0%" style="stop-color:#1e1b4b"/>
      <stop offset="100%" style="stop-color:#312e81"/>
    </linearGradient>
    <linearGradient id="llmGrad" x1="0%" y1="0%" x2="100%" y2="0%">
      <stop offset="0%" style="stop-color:#059669"/>
      <stop offset="100%" style="stop-color:#10b981"/>
    </linearGradient>
    <linearGradient id="extGrad" x1="0%" y1="0%" x2="0%" y2="100%">
      <stop offset="0%" style="stop-color:#1f2937"/>
      <stop offset="100%" style="stop-color:#374151"/>
    </linearGradient>
    <linearGradient id="memoryGrad" x1="0%" y1="0%" x2="0%" y2="100%">
      <stop offset="0%" style="stop-color:#7c3aed"/>
      <stop offset="100%" style="stop-color:#a78bfa"/>
    </linearGradient>
    
    <!-- Drop Shadow -->
    <filter id="shadow" x="-20%" y="-20%" width="140%" height="140%">
      <feDropShadow dx="2" dy="2" stdDeviation="3" flood-opacity="0.3"/>
    </filter>
    
    <!-- Glow -->
    <filter id="glow">
      <feGaussianBlur stdDeviation="2" result="coloredBlur"/>
      <feMerge>
        <feMergeNode in="coloredBlur"/>
        <feMergeNode in="SourceGraphic"/>
      </feMerge>
    </filter>
  </defs>
  
  <!-- Background -->
  <rect width="1200" height="900" fill="#0f0a1a"/>
  
  <!-- Grid pattern -->
  <pattern id="grid" width="40" height="40" patternUnits="userSpaceOnUse">
    <path d="M 40 0 L 0 0 0 40" fill="none" stroke="#1e1b4b" stroke-width="0.5" opacity="0.3"/>
  </pattern>
  <rect width="1200" height="900" fill="url(#grid)"/>
  
  <!-- Title -->
  <text x="600" y="45" text-anchor="middle" font-size="28" font-weight="bold" fill="url(#headerGrad)">0xKobold Architecture</text>
  <text x="600" y="70" text-anchor="middle" font-size="14" fill="#94a3b8">Multi-Agent AI Assistant Framework</text>
  
  <!-- ═══════════════════════════════════════════════════════════════════ -->
  <!-- TOP LAYER: Entry Point & PI Framework -->
  <!-- ═══════════════════════════════════════════════════════════════════ -->
  
  <!-- Entry Point -->
  <g filter="url(#shadow)">
    <rect x="50" y="100" width="180" height="70" rx="8" fill="#1e293b" stroke="#3b82f6" stroke-width="2"/>
    <text x="140" y="128" text-anchor="middle" font-size="14" font-weight="bold" fill="#60a5fa">src/index.ts</text>
    <text x="140" y="150" text-anchor="middle" font-size="11" fill="#94a3b8">Entry Point</text>
  </g>
  
  <!-- PI Framework -->
  <g filter="url(#shadow)">
    <rect x="260" y="100" width="200" height="70" rx="8" fill="url(#coreGrad)" stroke="#6366f1" stroke-width="2"/>
    <text x="360" y="125" text-anchor="middle" font-size="14" font-weight="bold" fill="#c4b5fd">PI Framework</text>
    <text x="360" y="147" text-anchor="middle" font-size="11" fill="#a5b4fc">@mariozechner/pi-coding-agent</text>
  </g>
  
  <!-- Event Bus -->
  <g filter="url(#shadow)">
    <rect x="490" y="100" width="180" height="70" rx="8" fill="#1e293b" stroke="#f59e0b" stroke-width="2"/>
    <text x="580" y="128" text-anchor="middle" font-size="14" font-weight="bold" fill="#fbbf24">Event Bus</text>
    <text x="580" y="150" text-anchor="middle" font-size="11" fill="#94a3b8">Inter-module communication</text>
  </g>
  
  <!-- Config -->
  <g filter="url(#shadow)">
    <rect x="700" y="100" width="160" height="70" rx="8" fill="#1e293b" stroke="#10b981" stroke-width="2"/>
    <text x="780" y="128" text-anchor="middle" font-size="14" font-weight="bold" fill="#34d399">pi-config.ts</text>
    <text x="780" y="150" text-anchor="middle" font-size="11" fill="#94a3b8">Extensions + Settings</text>
  </g>
  
  <!-- Extensions Loader -->
  <g filter="url(#shadow)">
    <rect x="890" y="100" width="160" height="70" rx="8" fill="#1e293b" stroke="#ec4899" stroke-width="2"/>
    <text x="970" y="128" text-anchor="middle" font-size="14" font-weight="bold" fill="#f472b6">Extensions</text>
    <text x="970" y="150" text-anchor="middle" font-size="11" fill="#94a3b8">35+ extensions</text>
  </g>
  
  <!-- Connection lines Top -->
  <path d="M230 135 L260 135" stroke="#3b82f6" stroke-width="2" marker-end="url(#arrow)"/>
  <path d="M460 135 L490 135" stroke="#6366f1" stroke-width="2"/>
  <path d="M670 135 L700 135" stroke="#f59e0b" stroke-width="2"/>
  <path d="M860 135 L890 135" stroke="#10b981" stroke-width="2"/>
  
  <!-- ═══════════════════════════════════════════════════════════════════ -->
  <!-- MIDDLE LAYER: Core Systems -->
  <!-- ═══════════════════════════════════════════════════════════════════ -->
  
  <!-- Agent Orchestrator -->
  <g filter="url(#shadow)">
    <rect x="50" y="220" width="220" height="100" rx="8" fill="url(#extGrad)" stroke="#f97316" stroke-width="2"/>
    <text x="160" y="250" text-anchor="middle" font-size="14" font-weight="bold" fill="#fb923c">agent-orchestrator</text>
    <line x1="70" y1="265" x2="250" y2="265" stroke="#4b5563" stroke-width="1"/>
    <text x="160" y="285" text-anchor="middle" font-size="10" fill="#9ca3af">Spawn agents, manage</text>
    <text x="160" y="300" text-anchor="middle" font-size="10" fill="#9ca3af">hierarchy, lifecycle</text>
  </g>
  
  <!-- Gateway -->
  <g filter="url(#shadow)">
    <rect x="290" y="220" width="200" height="100" rx="8" fill="url(#extGrad)" stroke="#06b6d4" stroke-width="2"/>
    <text x="390" y="250" text-anchor="middle" font-size="14" font-weight="bold" fill="#22d3ee">gateway</text>
    <line x1="310" y1="265" x2="470" y2="265" stroke="#4b5563" stroke-width="1"/>
    <text x="390" y="285" text-anchor="middle" font-size="10" fill="#9ca3af">WebSocket + HTTP</text>
    <text x="390" y="300" text-anchor="middle" font-size="10" fill="#9ca3af">Multi-channel support</text>
  </g>
  
  <!-- Draconic Systems -->
  <g filter="url(#shadow)">
    <rect x="510" y="220" width="200" height="100" rx="8" fill="url(#extGrad)" stroke="#ef4444" stroke-width="2"/>
    <text x="610" y="250" text-anchor="middle" font-size="14" font-weight="bold" fill="#f87171">draconic-systems</text>
    <line x1="530" y1="265" x2="690" y2="265" stroke="#4b5563" stroke-width="1"/>
    <text x="610" y="285" text-anchor="middle" font-size="10" fill="#9ca3af">Lair (workspaces)</text>
    <text x="610" y="300" text-anchor="middle" font-size="10" fill="#9ca3af">Hoard (snippets) + Safety</text>
  </g>
  
  <!-- Sessions -->
  <g filter="url(#shadow)">
    <rect x="730" y="220" width="160" height="100" rx="8" fill="url(#extGrad)" stroke="#8b5cf6" stroke-width="2"/>
    <text x="810" y="250" text-anchor="middle" font-size="14" font-weight="bold" fill="#a78bfa">sessions</text>
    <line x1="750" y1="265" x2="870" y2="265" stroke="#4b5563" stroke-width="1"/>
    <text x="810" y="285" text-anchor="middle" font-size="10" fill="#9ca3af">Unified session</text>
    <text x="810" y="300" text-anchor="middle" font-size="10" fill="#9ca3af">management</text>
  </g>
  
  <!-- Skills System -->
  <g filter="url(#shadow)">
    <rect x="910" y="220" width="140" height="100" rx="8" fill="url(#extGrad)" stroke="#84cc16" stroke-width="2"/>
    <text x="980" y="250" text-anchor="middle" font-size="14" font-weight="bold" fill="#a3e635">skills/</text>
    <line x1="925" y1="265" x2="1035" y2="265" stroke="#4b5563" stroke-width="1"/>
    <text x="980" y="285" text-anchor="middle" font-size="10" fill="#9ca3af">Hot-reloadable</text>
    <text x="980" y="300" text-anchor="middle" font-size="10" fill="#9ca3af">capabilities</text>
  </g>
  
  <!-- ═══════════════════════════════════════════════════════════════════ -->
  <!-- LLM LAYER -->
  <!-- ═══════════════════════════════════════════════════════════════════ -->
  
  <!-- LLM Module Box -->
  <g filter="url(#shadow)">
    <rect x="50" y="370" width="520" height="180" rx="10" fill="#064e3b" stroke="#10b981" stroke-width="2" opacity="0.3"/>
    <text x="310" y="395" text-anchor="middle" font-size="13" font-weight="bold" fill="#34d399">src/llm/</text>
  </g>
  
  <!-- Model Discovery -->
  <g filter="url(#shadow)">
    <rect x="70" y="410" width="150" height="80" rx="6" fill="#1e293b" stroke="#10b981" stroke-width="1.5"/>
    <text x="145" y="435" text-anchor="middle" font-size="12" font-weight="bold" fill="#34d399">model-discovery</text>
    <line x1="85" y1="445" x2="205" y2="445" stroke="#4b5563" stroke-width="1"/>
    <text x="145" y="460" text-anchor="middle" font-size="9" fill="#9ca3af">API fetch/cache</text>
    <text x="145" y="475" text-anchor="middle" font-size="9" fill="#9ca3af">Model classification</text>
  </g>
  
  <!-- Router Core -->
  <g filter="url(#shadow)">
    <rect x="235" y="410" width="160" height="80" rx="6" fill="#134e4a" stroke="#34d399" stroke-width="2"/>
    <text x="315" y="435" text-anchor="middle" font-size="12" font-weight="bold" fill="#6ee7b7">router-core</text>
    <line x1="250" y1="445" x2="380" y2="445" stroke="#4b5563" stroke-width="1"/>
    <text x="315" y="460" text-anchor="middle" font-size="9" fill="#9ca3af">Scoring + Learning</text>
    <text x="315" y="475" text-anchor="middle" font-size="9" fill="#9ca3af">AdaptiveModelRouter</text>
  </g>
  
  <!-- Router Commands -->
  <g filter="url(#shadow)">
    <rect x="410" y="410" width="150" height="80" rx="6" fill="#1e293b" stroke="#10b981" stroke-width="1.5"/>
    <text x="485" y="435" text-anchor="middle" font-size="12" font-weight="bold" fill="#34d399">router-commands</text>
    <line x1="425" y1="445" x2="545" y2="445" stroke="#4b5563" stroke-width="1"/>
    <text x="485" y="460" text-anchor="middle" font-size="9" fill="#9ca3af">Singleton + Init</text>
    <text x="485" y="475" text-anchor="middle" font-size="9" fill="#9ca3af">CLI handlers</text>
  </g>
  
  <!-- Providers -->
  <g filter="url(#shadow)">
    <rect x="70" y="510" width="150" height="30" rx="4" fill="#1e293b" stroke="#6b7280" stroke-width="1"/>
    <text x="145" y="530" text-anchor="middle" font-size="11" fill="#9ca3af">ollama.ts</text>
  </g>
  <g filter="url(#shadow)">
    <rect x="235" y="510" width="160" height="30" rx="4" fill="#1e293b" stroke="#6b7280" stroke-width="1"/>
    <text x="315" y="530" text-anchor="middle" font-size="11" fill="#9ca3af">anthropic.ts</text>
  </g>
  <g filter="url(#shadow)">
    <rect x="410" y="510" width="150" height="30" rx="4" fill="#1e293b" stroke="#6b7280" stroke-width="1"/>
    <text x="485" y="530" text-anchor="middle" font-size="11" fill="#9ca3af">types.ts</text>
  </g>
  
  <!-- LLM Flow arrows -->
  <path d="M220 450 L235 450" stroke="#10b981" stroke-width="1.5" marker-end="url(#arrowGreen)"/>
  <path d="M395 450 L410 450" stroke="#10b981" stroke-width="1.5" marker-end="url(#arrowGreen)"/>
  
  <!-- ═══════════════════════════════════════════════════════════════════ -->
  <!-- MEMORY LAYER -->
  <!-- ═══════════════════════════════════════════════════════════════════ -->
  
  <g filter="url(#shadow)">
    <rect x="600" y="370" width="500" height="180" rx="10" fill="#2e1065" stroke="#8b5cf6" stroke-width="2" opacity="0.3"/>
    <text x="850" y="395" text-anchor="middle" font-size="13" font-weight="bold" fill="#a78bfa">src/memory/ + Extensions</text>
  </g>
  
  <!-- Perennial Memory -->
  <g filter="url(#shadow)">
    <rect x="620" y="410" width="150" height="80" rx="6" fill="#1e293b" stroke="#8b5cf6" stroke-width="1.5"/>
    <text x="695" y="435" text-anchor="middle" font-size="12" font-weight="bold" fill="#c4b5fd">perennial-memory</text>
    <line x1="635" y1="445" x2="755" y2="445" stroke="#4b5563" stroke-width="1"/>
    <text x="695" y="460" text-anchor="middle" font-size="9" fill="#9ca3af">Long-term storage</text>
    <text x="695" y="475" text-anchor="middle" font-size="9" fill="#9ca3af">Semantic search</text>
  </g>
  
  <!-- Generative Agents -->
  <g filter="url(#shadow)">
    <rect x="785" y="410" width="150" height="80" rx="6" fill="#1e293b" stroke="#a855f7" stroke-width="1.5"/>
    <text x="860" y="435" text-anchor="middle" font-size="12" font-weight="bold" fill="#c084fc">generative-agents</text>
    <line x1="800" y1="445" x2="920" y2="445" stroke="#4b5563" stroke-width="1"/>
    <text x="860" y="460" text-anchor="middle" font-size="9" fill="#9ca3af">Memory stream</text>
    <text x="860" y="475" text-anchor="middle" font-size="9" fill="#9ca3af">Reflection + Planning</text>
  </g>
  
  <!-- Session Store -->
  <g filter="url(#shadow)">
    <rect x="950" y="410" width="130" height="80" rx="6" fill="#1e293b" stroke="#7c3aed" stroke-width="1.5"/>
    <text x="1015" y="435" text-anchor="middle" font-size="12" font-weight="bold" fill="#a78bfa">session-store</text>
    <line x1="965" y1="445" x2="1065" y2="445" stroke="#4b5563" stroke-width="1"/>
    <text x="1015" y="460" text-anchor="middle" font-size="9" fill="#9ca3af">Conversation</text>
    <text x="1015" y="475" text-anchor="middle" font-size="9" fill="#9ca3af">persistence</text>
  </g>
  
  <!-- Memory DB icons -->
  <g filter="url(#shadow)">
    <rect x="620" y="510" width="100" height="30" rx="4" fill="#1e293b" stroke="#6b7280" stroke-width="1"/>
    <text x="670" y="530" text-anchor="middle" font-size="10" fill="#9ca3af">~/.0xkobold/</text>
  </g>
  <g filter="url(#shadow)">
    <rect x="735" y="510" width="100" height="30" rx="4" fill="#1e293b" stroke="#6b7280" stroke-width="1"/>
    <text x="785" y="530" text-anchor="middle" font-size="10" fill="#9ca3af">SQLite</text>
  </g>
  <g filter="url(#shadow)">
    <rect x="850" y="510" width="100" height="30" rx="4" fill="#1e293b" stroke="#6b7280" stroke-width="1"/>
    <text x="900" y="530" text-anchor="middle" font-size="10" fill="#9ca3af">Ollama embeddings</text>
  </g>
  
  <!-- ═══════════════════════════════════════════════════════════════════ -->
  <!-- EXTENSIONS LAYER -->
  <!-- ═══════════════════════════════════════════════════════════════════ -->
  
  <!-- Extensions Container -->
  <g filter="url(#shadow)">
    <rect x="50" y="590" width="1050" height="130" rx="10" fill="#0f172a" stroke="#475569" stroke-width="2" opacity="0.5"/>
    <text x="575" y="615" text-anchor="middle" font-size="13" font-weight="bold" fill="#94a3b8">Core Extensions (35+)</text>
  </g>
  
  <!-- Extension boxes - Row 1 -->
  <rect x="60" y="630" width="90" height="35" rx="4" fill="#1e293b" stroke="#3b82f6" stroke-width="1"/>
  <text x="105" y="652" text-anchor="middle" font-size="9" fill="#60a5fa">routed-ollama</text>
  
  <rect x="160" y="630" width="90" height="35" rx="4" fill="#1e293b" stroke="#8b5cf6" stroke-width="1"/>
  <text x="205" y="652" text-anchor="middle" font-size="9" fill="#a78bfa">discord</text>
  
  <rect x="260" y="630" width="90" height="35" rx="4" fill="#1e293b" stroke="#f59e0b" stroke-width="1"/>
  <text x="305" y="652" text-anchor="middle" font-size="9" fill="#fbbf24">mcp</text>
  
  <rect x="360" y="630" width="90" height="35" rx="4" fill="#1e293b" stroke="#10b981" stroke-width="1"/>
  <text x="405" y="652" text-anchor="middle" font-size="9" fill="#34d399">perennial</text>
  
  <rect x="460" y="630" width="90" height="35" rx="4" fill="#1e293b" stroke="#ec4899" stroke-width="1"/>
  <text x="505" y="652" text-anchor="middle" font-size="9" fill="#f472b6">generative</text>
  
  <rect x="560" y="630" width="90" height="35" rx="4" fill="#1e293b" stroke="#06b6d4" stroke-width="1"/>
  <text x="605" y="652" text-anchor="middle" font-size="9" fill="#22d3ee">task-manager</text>
  
  <rect x="660" y="630" width="90" height="35" rx="4" fill="#1e293b" stroke="#ef4444" stroke-width="1"/>
  <text x="705" y="652" text-anchor="middle" font-size="9" fill="#f87171">draconic-safety</text>
  
  <rect x="760" y="630" width="90" height="35" rx="4" fill="#1e293b" stroke="#84cc16" stroke-width="1"/>
  <text x="805" y="652" text-anchor="middle" font-size="9" fill="#a3e635">fileops</text>
  
  <rect x="860" y="630" width="90" height="35" rx="4" fill="#1e293b" stroke="#6366f1" stroke-width="1"/>
  <text x="905" y="652" text-anchor="middle" font-size="9" fill="#818cf8">obsidian</text>
  
  <rect x="960" y="630" width="90" height="35" rx="4" fill="#1e293b" stroke="#f97316" stroke-width="1"/>
  <text x="1005" y="652" text-anchor="middle" font-size="9" fill="#fb923c">heartbeat</text>
  
  <!-- Extension boxes - Row 2 -->
  <rect x="60" y="675" width="90" height="35" rx="4" fill="#1e293b" stroke="#64748b" stroke-width="1"/>
  <text x="105" y="697" text-anchor="middle" font-size="9" fill="#94a3b8">wallet</text>
  
  <rect x="160" y="675" width="90" height="35" rx="4" fill="#1e293b" stroke="#64748b" stroke-width="1"/>
  <text x="205" y="697" text-anchor="middle" font-size="9" fill="#94a3b8">cron</text>
  
  <rect x="260" y="675" width="90" height="35" rx="4" fill="#1e293b" stroke="#64748b" stroke-width="1"/>
  <text x="305" y="697" text-anchor="middle" font-size="9" fill="#94a3b8">websearch</text>
  
  <rect x="360" y="675" width="90" height="35" rx="4" fill="#1e293b" stroke="#64748b" stroke-width="1"/>
  <text x="405" y="697" text-anchor="middle" font-size="9" fill="#94a3b8">diagnostics</text>
  
  <rect x="460" y="675" width="90" height="35" rx="4" fill="#1e293b" stroke="#64748b" stroke-width="1"/>
  <text x="505" y="697" text-anchor="middle" font-size="9" fill="#94a3b8">git-commit</text>
  
  <rect x="560" y="675" width="90" height="35" rx="4" fill="#1e293b" stroke="#64748b" stroke-width="1"/>
  <text x="605" y="697" text-anchor="middle" font-size="9" fill="#94a3b8">multi-channel</text>
  
  <rect x="660" y="675" width="90" height="35" rx="4" fill="#1e293b" stroke="#64748b" stroke-width="1"/>
  <text x="705" y="697" text-anchor="middle" font-size="9" fill="#94a3b8">auth</text>
  
  <rect x="760" y="675" width="90" height="35" rx="4" fill="#1e293b" stroke="#64748b" stroke-width="1"/>
  <text x="805" y="697" text-anchor="middle" font-size="9" fill="#94a3b8">sandbox</text>
  
  <rect x="860" y="675" width="90" height="35" rx="4" fill="#1e293b" stroke="#64748b" stroke-width="1"/>
  <text x="905" y="697" text-anchor="middle" font-size="9" fill="#94a3b8">self-update</text>
  
  <!-- " + more" -->
  <rect x="960" y="675" width="90" height="35" rx="4" fill="#1e293b" stroke="#64748b" stroke-width="1" stroke-dasharray="3,3"/>
  <text x="1005" y="697" text-anchor="middle" font-size="9" fill="#64748b">+ 16 more</text>
  
  <!-- ═══════════════════════════════════════════════════════════════════ -->
  <!-- DATA LAYER -->
  <!-- ═══════════════════════════════════════════════════════════════════ -->
  
  <g filter="url(#shadow)">
    <rect x="50" y="750" width="400" height="80" rx="8" fill="#1e1b4b" stroke="#4f46e5" stroke-width="2"/>
    <text x="250" y="780" text-anchor="middle" font-size="14" font-weight="bold" fill="#818cf8">~/.0xkobold/</text>
    <text x="250" y="800" text-anchor="middle" font-size="11" fill="#94a3b8">config.json • agents.db • sessions.db • memory.db</text>
    <text x="250" y="818" text-anchor="middle" font-size="11" fill="#94a3b8">skills/ • lairs/ • hoard/</text>
  </g>
  
  <!-- External APIs -->
  <g filter="url(#shadow)">
    <rect x="480" y="750" width="160" height="80" rx="8" fill="#1e293b" stroke="#059669" stroke-width="2"/>
    <text x="560" y="780" text-anchor="middle" font-size="14" font-weight="bold" fill="#34d399">Ollama API</text>
    <text x="560" y="800" text-anchor="middle" font-size="11" fill="#9ca3af">Local + Cloud</text>
    <text x="560" y="818" text-anchor="middle" font-size="11" fill="#9ca3af">localhost:11434</text>
  </g>
  
  <g filter="url(#shadow)">
    <rect x="660" y="750" width="160" height="80" rx="8" fill="#1e293b" stroke="#dc2626" stroke-width="2"/>
    <text x="740" y="780" text-anchor="middle" font-size="14" font-weight="bold" fill="#f87171">Anthropic API</text>
    <text x="740" y="800" text-anchor="middle" font-size="11" fill="#9ca3af">Claude Models</text>
    <text x="740" y="818" text-anchor="middle" font-size="11" fill="#9ca3af">api.anthropic.com</text>
  </g>
  
  <g filter="url(#shadow)">
    <rect x="840" y="750" width="160" height="80" rx="8" fill="#1e293b" stroke="#7289da" stroke-width="2"/>
    <text x="920" y="780" text-anchor="middle" font-size="14" font-weight="bold" fill="#99aab5">Discord Gateway</text>
    <text x="920" y="800" text-anchor="middle" font-size="11" fill="#9ca3af">Bot integration</text>
    <text x="920" y="818" text-anchor="middle" font-size="11" fill="#9ca3af">discord.gg</text>
  </g>
  
  <g filter="url(#shadow)">
    <rect x="1020" y="750" width="130" height="80" rx="8" fill="#1e293b" stroke="#f59e0b" stroke-width="2"/>
    <text x="1085" y="780" text-anchor="middle" font-size="14" font-weight="bold" fill="#fbbf24">WebSocket</text>
    <text x="1085" y="800" text-anchor="middle" font-size="11" fill="#9ca3af">Agent spawning</text>
    <text x="1085" y="818" text-anchor="middle" font-size="11" fill="#9ca3af">:18789</text>
  </g>
  
  <!-- ═══════════════════════════════════════════════════════════════════ -->
  <!-- LEGEND -->
  <!-- ═══════════════════════════════════════════════════════════════════ -->
  
  <text x="50" y="870" font-size="10" fill="#64748b">Layer:</text>
  <rect x="95" y="862" width="15" height="10" fill="#1e293b" stroke="#3b82f6" stroke-width="1"/>
  <text x="115" y="870" font-size="9" fill="#64748b">Entry</text>
  <rect x="150" y="862" width="15" height="10" fill="url(#coreGrad)"/>
  <text x="170" y="870" font-size="9" fill="#64748b">Core</text>
  <rect x="200" y="862" width="15" height="10" fill="#134e4a"/>
  <text x="220" y="870" font-size="9" fill="#64748b">LLM</text>
  <rect x="250" y="862" width="15" height="10" fill="#2e1065"/>
  <text x="270" y="870" font-size="9" fill="#64748b">Memory</text>
  <rect x="310" y="862" width="15" height="10" fill="#1e293b"/>
  <text x="330" y="870" font-size="9" fill="#64748b">External</text>
  
  <!-- Arrow markers -->
  <defs>
    <marker id="arrow" markerWidth="10" markerHeight="7" refX="9" refY="3.5" orient="auto">
      <polygon points="0 0, 10 3.5, 0 7" fill="#3b82f6"/>
    </marker>
    <marker id="arrowGreen" markerWidth="10" markerHeight="7" refX="9" refY="3.5" orient="auto">
      <polygon points="0 0, 10 3.5, 0 7" fill="#10b981"/>
    </marker>
  </defs>
  
  <!-- Flow connections -->
  <path d="M140 170 L140 195 L160 195 L160 220" stroke="#3b82f6" stroke-width="1.5" fill="none" stroke-dasharray="4,2"/>
  <path d="M360 170 L360 195 L390 195 L390 220" stroke="#6366f1" stroke-width="1.5" fill="none" stroke-dasharray="4,2"/>
  <path d="M580 170 L580 195 L610 195 L610 220" stroke="#f59e0b" stroke-width="1.5" fill="none" stroke-dasharray="4,2"/>
  <path d="M780 170 L780 195 L810 195 L810 220" stroke="#10b981" stroke-width="1.5" fill="none" stroke-dasharray="4,2"/>
  <path d="M970 170 L970 195 L980 195 L980 220" stroke="#ec4899" stroke-width="1.5" fill="none" stroke-dasharray="4,2"/>
  
  <!-- LLM to Memory connection -->
  <path d="M570 450 L600 450" stroke="#8b5cf6" stroke-width="1" stroke-dasharray="3,2"/>
  
  <!-- Core to Data -->
  <path d="M160 320 L160 750" stroke="#4f46e5" stroke-width="1" stroke-dasharray="2,3" opacity="0.5"/>
  <path d="M610 320 L610 370" stroke="#ef4444" stroke-width="1" stroke-dasharray="2,3" opacity="0.5"/>
  <path d="M390 320 L390 340 L560 340 L560 750" stroke="#06b6d4" stroke-width="1" stroke-dasharray="2,3" opacity="0.5"/>
</svg>